<svg xmlns="http://www.w3.org/2000/svg" version="1.1" xmlns:xlink="http://www.w3.org/1999/xlink" xmlns:svgjs="http://svgjs.dev/svgjs" width="1000" height="314" viewBox="0 0 1000 314"><g transform="matrix(1,0,0,1,0.16994382022460286,0.32661607142858884)"><svg viewBox="0 0 356 112" data-background-color="#ffffff" preserveAspectRatio="xMidYMid meet" height="314" width="1000" xmlns="http://www.w3.org/2000/svg" xmlns:xlink="http://www.w3.org/1999/xlink"><g id="tight-bounds" transform="matrix(1,0,0,1,-0.06049999999996203,-0.11650000000000205)"><svg viewBox="0 0 356.12052 112.23283348226019" height="112.23283348226019" width="356.12052"><g><svg viewBox="0 0 356.12052 112.23283348226019" height="112.23283348226019" width="356.12052"><g><svg viewBox="0 0 356.12052 112.23283348226019" height="112.23283348226019" width="356.12052"><g><path d="M0 112.233v-112.233h356.121v112.233z" fill="#a6ce47" stroke="transparent" stroke-width="0" rx="0%" data-fill-palette-color="tertiary"></path><path d="M3.283 108.95v-105.667h349.554v105.667z" fill="#ffffff" stroke="transparent" stroke-width="0" rx="0%" data-fill-palette-color="quaternary"></path><path d="M9.85 102.383v-92.533h336.421v92.533z" fill="#a6ce47" stroke="transparent" stroke-width="0" data-fill-palette-color="tertiary"></path></g><g transform="matrix(1,0,0,1,19.69974,19.69974)" id="textblocktransform"><svg viewBox="0 0 316.72104 72.8333534822602" height="72.8333534822602" width="316.72104" id="textblock"><g><svg viewBox="0 0 316.72104 72.8333534822602" height="72.8333534822602" width="316.72104"><g transform="matrix(1,0,0,1,0,0)"><svg width="316.72104" viewBox="3.5 -35 152.19 35" height="72.8333534822602" data-palette-color="#ffffff"><path d="M11.5 0L4.75 0Q4.2 0 3.85-0.38 3.5-0.75 3.5-1.25L3.5-1.25 3.5-33.75Q3.5-34.3 3.85-34.65 4.2-35 4.75-35L4.75-35 18.75-35Q22.9-35 25.98-33.73 29.05-32.45 30.78-29.9 32.5-27.35 32.5-23.45L32.5-23.45Q32.5-19.6 30.78-17.1 29.05-14.6 25.98-13.4 22.9-12.2 18.75-12.2L18.75-12.2 12.8-12.2 12.8-1.25Q12.8-0.75 12.43-0.38 12.05 0 11.5 0L11.5 0ZM12.65-28.05L12.65-19.1 18.5-19.1Q20.65-19.1 21.93-20.2 23.2-21.3 23.2-23.55L23.2-23.55Q23.2-25.45 22.1-26.75 21-28.05 18.5-28.05L18.5-28.05 12.65-28.05ZM45 0L38.55 0Q38 0 37.65-0.38 37.3-0.75 37.3-1.25L37.3-1.25 37.3-33.75Q37.3-34.3 37.65-34.65 38-35 38.55-35L38.55-35 52.15-35Q58.65-35 62.35-32.02 66.05-29.05 66.05-23.6L66.05-23.6Q66.05-20.05 64.35-17.6 62.65-15.15 59.85-13.9L59.85-13.9 66.7-1.6Q66.85-1.3 66.85-1.05L66.85-1.05Q66.85-0.65 66.52-0.33 66.2 0 65.8 0L65.8 0 59.15 0Q58.2 0 57.75-0.48 57.3-0.95 57.1-1.35L57.1-1.35 51.4-12.35 46.3-12.35 46.3-1.25Q46.3-0.75 45.92-0.38 45.55 0 45 0L45 0ZM46.3-28.05L46.3-19.45 52.05-19.45Q54.4-19.45 55.57-20.6 56.75-21.75 56.75-23.7L56.75-23.7Q56.75-25.65 55.62-26.85 54.5-28.05 52.05-28.05L52.05-28.05 46.3-28.05ZM79.8 0L73.1 0Q72.55 0 72.2-0.38 71.85-0.75 71.85-1.25L71.85-1.25 71.85-33.75Q71.85-34.3 72.2-34.65 72.55-35 73.1-35L73.1-35 79.8-35Q80.35-35 80.72-34.65 81.1-34.3 81.1-33.75L81.1-33.75 81.1-1.25Q81.1-0.75 80.72-0.38 80.35 0 79.8 0L79.8 0ZM95.29 0L89.29 0Q88.79 0 88.42-0.38 88.04-0.75 88.04-1.25L88.04-1.25 88.04-33.75Q88.04-34.3 88.42-34.65 88.79-35 89.29-35L89.29-35 94.69-35Q95.54-35 95.94-34.58 96.34-34.15 96.44-33.9L96.44-33.9 105.24-18.15 114.04-33.9Q114.19-34.15 114.57-34.58 114.94-35 115.79-35L115.79-35 121.14-35Q121.69-35 122.07-34.65 122.44-34.3 122.44-33.75L122.44-33.75 122.44-1.25Q122.44-0.75 122.07-0.38 121.69 0 121.14 0L121.14 0 115.19 0Q114.64 0 114.27-0.38 113.89-0.75 113.89-1.25L113.89-1.25 113.89-20 108.29-9.55Q108.04-9.1 107.64-8.75 107.24-8.4 106.54-8.4L106.54-8.4 103.94-8.4Q103.24-8.4 102.84-8.75 102.44-9.1 102.19-9.55L102.19-9.55 96.54-20 96.54-1.25Q96.54-0.75 96.19-0.38 95.84 0 95.29 0L95.29 0ZM154.44 0L130.69 0Q130.14 0 129.79-0.38 129.44-0.75 129.44-1.25L129.44-1.25 129.44-33.75Q129.44-34.3 129.79-34.65 130.14-35 130.69-35L130.69-35 154.04-35Q154.59-35 154.94-34.65 155.29-34.3 155.29-33.75L155.29-33.75 155.29-29.05Q155.29-28.5 154.94-28.15 154.59-27.8 154.04-27.8L154.04-27.8 138.09-27.8 138.09-21.05 152.94-21.05Q153.49-21.05 153.84-20.68 154.19-20.3 154.19-19.75L154.19-19.75 154.19-15.4Q154.19-14.9 153.84-14.53 153.49-14.15 152.94-14.15L152.94-14.15 138.09-14.15 138.09-7.2 154.44-7.2Q154.99-7.2 155.34-6.85 155.69-6.5 155.69-5.95L155.69-5.95 155.69-1.25Q155.69-0.75 155.34-0.38 154.99 0 154.44 0L154.44 0Z" opacity="1" transform="matrix(1,0,0,1,0,0)" fill="#ffffff" class="wordmark-text-0" data-fill-palette-color="quaternary" id="text-0"></path></svg></g></svg></g></svg></g></svg></g><g></g></svg></g><defs></defs></svg><rect width="356.12052" height="112.23283348226019" fill="none" stroke="none" visibility="hidden"></rect></g></svg></g></svg>