<svg xmlns="http://www.w3.org/2000/svg" version="1.1" xmlns:xlink="http://www.w3.org/1999/xlink" xmlns:svgjs="http://svgjs.dev/svgjs" width="1000" height="184" viewBox="0 0 1000 184"><g transform="matrix(1,0,0,1,-0.6060606060606233,0.19852772118785822)"><svg viewBox="0 0 396 73" data-background-color="#ffffff" preserveAspectRatio="xMidYMid meet" height="184" width="1000" xmlns="http://www.w3.org/2000/svg" xmlns:xlink="http://www.w3.org/1999/xlink"><g id="tight-bounds" transform="matrix(1,0,0,1,0.2400000000000091,-0.07876371547126837)"><svg viewBox="0 0 395.52 73.15752743094257" height="73.15752743094257" width="395.52"><g><svg viewBox="0 0 633.7773159201065 117.22689465648854" height="73.15752743094257" width="395.52"><g><rect width="8.80970194856452" height="117.22689465648854" x="418.582046985771" y="0" fill="#a6ce47" opacity="1" stroke-width="0" stroke="transparent" fill-opacity="1" class="rect-r$-0" data-fill-palette-color="primary" rx="1%" id="r$-0" data-palette-color="#a6ce47"></rect></g><g transform="matrix(1,0,0,1,0,9.768907888040708)"><svg viewBox="0 0 395.52 97.68907888040712" height="97.68907888040712" width="395.52"><g id="textblocktransform"><svg viewBox="0 0 395.52 97.68907888040712" height="97.68907888040712" width="395.52" id="textblock"><g><svg viewBox="0 0 395.52 97.68907888040712" height="97.68907888040712" width="395.52"><g transform="matrix(1,0,0,1,0,0)"><svg width="395.52" viewBox="3.64 -35.55 143.91000000000003 35.55" height="97.68907888040712" data-palette-color="#a6ce47"><path d="M10.5 0L10.5-13.04 15.8-13.04Q18.7-13.04 21.04-13.87 23.39-14.7 25.05-16.19L25.05-16.19Q26.68-17.65 27.58-19.68 28.47-21.7 28.47-24.1L28.47-24.1Q28.47-26.66 27.58-28.76 26.68-30.86 25.05-32.37L25.05-32.37Q23.39-33.86 21.04-34.7 18.7-35.55 15.8-35.55L15.8-35.55 3.64-35.55 3.64 0 10.5 0ZM15.8-18.6L10.5-18.6 10.5-29.98 15.8-29.98Q17.26-29.98 18.33-29.52 19.41-29.05 20.14-28.25L20.14-28.25Q20.85-27.44 21.2-26.37 21.56-25.29 21.56-24.05L21.56-24.05Q21.56-22.97 21.2-21.98 20.85-21 20.14-20.24L20.14-20.24Q19.41-19.48 18.33-19.04 17.26-18.6 15.8-18.6L15.8-18.6ZM40.06-13.28L45.26-13.28 51.95 0 59.3 0 59.3-0.32 51.66-14.99Q53.12-15.65 54.31-16.55 55.49-17.46 56.35-18.68L56.35-18.68Q57.18-19.87 57.63-21.4 58.08-22.92 58.08-24.83L58.08-24.83Q58.08-27.47 57.16-29.47 56.25-31.47 54.56-32.81L54.56-32.81Q52.85-34.16 50.46-34.85 48.07-35.55 45.11-35.55L45.11-35.55 33.2-35.55 33.2 0 40.06 0 40.06-13.28ZM45.14-18.85L40.06-18.85 40.06-29.98 45.11-29.98Q46.53-29.98 47.63-29.64 48.73-29.3 49.48-28.66L49.48-28.66Q50.34-27.95 50.77-26.87 51.19-25.78 51.19-24.37L51.19-24.37Q51.19-23.19 50.86-22.24 50.53-21.29 49.9-20.61L49.9-20.61Q49.14-19.75 47.93-19.3 46.73-18.85 45.14-18.85L45.14-18.85ZM85.27-35.55L64.72-35.55 64.72-30 71.48-30 71.48-5.52 64.72-5.52 64.72 0 85.27 0 85.27-5.52 78.34-5.52 78.34-30 85.27-30 85.27-35.55ZM105-22.19L101.63-35.55 93.11-35.55 93.11 0 99.41 0 99.41-10.52 99.11-26.49 103.29-11.72 106.68-11.72 111.35-27.15 111.05-10.52 111.05 0 117.35 0 117.35-35.55 108.83-35.55 105-22.19ZM130.48-15.58L145.08-15.58 145.08-21 130.48-21 130.48-29.96 147.48-29.96 147.48-35.55 123.6-35.55 123.6 0 147.55 0 147.55-5.54 130.48-5.54 130.48-15.58Z" opacity="1" transform="matrix(1,0,0,1,0,0)" fill="#a6ce47" class="wordmark-text-0" data-fill-palette-color="primary" id="text-0"></path></svg></g></svg></g></svg></g></svg></g><g transform="matrix(1,0,0,1,450.45379592010653,22.96720732824427)"><svg viewBox="0 0 183.32352 71.29248" height="71.29248" width="183.32352"><g><svg xmlns="http://www.w3.org/2000/svg" xmlns:xlink="http://www.w3.org/1999/xlink" version="1.1" x="0" y="0" viewBox="5 32.5 90 35" enable-background="new 0 0 100 100" xml:space="preserve" height="71.29248" width="183.32352" class="icon-icon-0" data-fill-palette-color="accent" id="icon-0"><path d="M90.781 42.898C91.083 42.01 91.25 41.033 91.25 40c0-4.206-2.745-7.5-6.25-7.5H15c-4.03 0-7.188 3.843-7.188 8.75 0 0.793 0.09 1.554 0.246 2.279C6.216 44.82 5 47.205 5 50c0 2.795 1.216 5.181 3.058 6.471-0.155 0.726-0.246 1.486-0.246 2.279 0 4.906 3.157 8.75 7.188 8.75h70c3.505 0 6.25-3.294 6.25-7.5 0-1.033-0.167-2.01-0.469-2.898C93.258 56.112 95 53.348 95 50 95 46.652 93.258 43.889 90.781 42.898zM15 62.5c-1.032 0-2.188-1.604-2.188-3.75 0-0.945 0.231-1.773 0.57-2.417 6.798 0.442 18.731 2.711 30.327 4.92 2.224 0.423 4.424 0.842 6.582 1.247H15zM88.75 53.75c-1.355 0-2.5-1.718-2.5-3.75 0-2.033 1.145-3.75 2.5-3.75s2.5 1.717 2.5 3.75C91.25 52.032 90.105 53.75 88.75 53.75zM87.5 60c0 2.032-1.145 3.75-2.5 3.75s-2.5-1.718-2.5-3.75 1.145-3.75 2.5-3.75S87.5 57.968 87.5 60zM10 50c0-2.033 1.145-3.75 2.5-3.75 6.145 0 18.557 2.542 30.56 5 12.407 2.541 24.124 4.938 30.453 4.995C72.88 57.292 72.5 58.59 72.5 60c0 1.348 0.347 2.595 0.93 3.617-6.793-0.545-18.182-2.712-29.253-4.82-12.045-2.293-24.469-4.659-31.351-5.004-0.104-0.028-0.213-0.043-0.326-0.043C11.145 53.75 10 52.032 10 50zM77.5 36.25c1.355 0 2.5 1.717 2.5 3.75s-1.145 3.75-2.5 3.75S75 42.033 75 40 76.145 36.25 77.5 36.25zM71.25 50c0-2.033 1.145-3.75 2.5-3.75s2.5 1.717 2.5 3.75c0 2.032-1.145 3.75-2.5 3.75S71.25 52.032 71.25 50zM81.25 53.75c-1.355 0-2.5-1.718-2.5-3.75 0-2.033 1.145-3.75 2.5-3.75s2.5 1.717 2.5 3.75C83.75 52.032 82.605 53.75 81.25 53.75zM75 60c0-2.032 1.145-3.75 2.5-3.75S80 57.968 80 60s-1.145 3.75-2.5 3.75S75 62.032 75 60zM85 43.75c-1.355 0-2.5-1.717-2.5-3.75s1.145-3.75 2.5-3.75 2.5 1.717 2.5 3.75S86.355 43.75 85 43.75zM73.506 43.745c-6.092-0.055-17.589-2.224-28.72-4.326-3.465-0.654-6.964-1.315-10.339-1.919H72.92c-0.269 0.766-0.42 1.611-0.42 2.5C72.5 41.406 72.878 42.7 73.506 43.745zM15 37.5c6.154 0 17.933 2.224 29.322 4.375 9.756 1.842 19.064 3.599 25.556 4.175C69.174 47.128 68.75 48.503 68.75 50c0 1.289 0.314 2.489 0.852 3.485-6.609-0.706-16.454-2.721-26.04-4.684-11.567-2.369-23.495-4.809-30.125-5.029-0.37-0.656-0.624-1.526-0.624-2.522C12.813 39.104 13.968 37.5 15 37.5z" fill="#a6ce47" data-fill-palette-color="accent"></path></svg></g></svg></g></svg></g><defs></defs></svg><rect width="395.52" height="73.15752743094257" fill="none" stroke="none" visibility="hidden"></rect></g></svg></g></svg>