<svg xmlns="http://www.w3.org/2000/svg" version="1.1" xmlns:xlink="http://www.w3.org/1999/xlink" xmlns:svgjs="http://svgjs.dev/svgjs" width="1000" height="186" viewBox="0 0 1000 186"><g transform="matrix(1,0,0,1,-0.6060606060606233,0.30000012144921584)"><svg viewBox="0 0 396 74" data-background-color="#ffffff" preserveAspectRatio="xMidYMid meet" height="186" width="1000" xmlns="http://www.w3.org/2000/svg" xmlns:xlink="http://www.w3.org/1999/xlink"><g id="tight-bounds" transform="matrix(1,0,0,1,0.2400000000000091,-0.1193548870281802)"><svg viewBox="0 0 395.52 74.23870977405635" height="74.23870977405635" width="395.52"><g><svg viewBox="0 0 634.6674687931439 119.12645130149974" height="74.23870977405635" width="395.52"><g><rect width="8.952455264055825" height="119.12645130149974" x="418.955746764544" y="0" fill="#a6ce47" opacity="1" stroke-width="0" stroke="transparent" fill-opacity="1" class="rect-r$-0" data-fill-palette-color="primary" rx="1%" id="r$-0" data-palette-color="#a6ce47"></rect></g><g transform="matrix(1,0,0,1,0,9.927204275124978)"><svg viewBox="0 0 395.52 99.27204275124978" height="99.27204275124978" width="395.52"><g id="textblocktransform"><svg viewBox="0 0 395.52 99.27204275124978" height="99.27204275124978" width="395.52" id="textblock"><g><svg viewBox="0 0 395.52 99.27204275124978" height="99.27204275124978" width="395.52"><g transform="matrix(1,0,0,1,0,0)"><svg width="395.52" viewBox="4.66 -35.55 141.62 35.55" height="99.27204275124978" data-palette-color="#a6ce47"><path d="M9.18 0L9.18-14.26 16.19-14.26Q18.58-14.28 20.72-14.99 22.85-15.7 24.46-17.04L24.46-17.04Q26.07-18.38 27.01-20.35 27.95-22.31 27.95-24.88L27.95-24.88Q27.95-27.44 27.01-29.42 26.07-31.4 24.46-32.74L24.46-32.74Q22.85-34.08 20.72-34.79 18.58-35.5 16.19-35.55L16.19-35.55 4.66-35.55 4.66 0 9.18 0ZM16.19-17.97L9.18-17.97 9.18-31.84 16.19-31.84Q17.75-31.81 19.08-31.32 20.41-30.83 21.39-29.93L21.39-29.93Q22.34-29.03 22.89-27.73 23.44-26.44 23.44-24.83L23.44-24.83Q23.44-23.22 22.89-21.96 22.34-20.7 21.36-19.82L21.36-19.82Q20.39-18.95 19.07-18.47 17.75-17.99 16.19-17.97L16.19-17.97ZM38.91-14.5L46.02-14.5 53 0 57.76 0 57.79-0.29 50.24-15.48Q51.71-16.11 52.93-17.02 54.15-17.92 55.03-19.09L55.03-19.09Q55.91-20.26 56.41-21.7 56.91-23.14 56.91-24.88L56.91-24.88Q56.91-27.56 55.97-29.55 55.03-31.54 53.39-32.86L53.39-32.86Q51.73-34.18 49.53-34.84 47.34-35.5 44.85-35.55L44.85-35.55 34.42-35.55 34.42 0 38.91 0 38.91-14.5ZM44.97-18.21L38.91-18.21 38.91-31.84 44.85-31.84Q46.48-31.81 47.86-31.37 49.24-30.93 50.24-30.08L50.24-30.08Q51.24-29.2 51.8-27.92 52.37-26.64 52.37-24.93L52.37-24.93Q52.37-23.32 51.78-22.08 51.19-20.85 50.19-20L50.19-20Q49.17-19.14 47.82-18.69 46.48-18.24 44.97-18.21L44.97-18.21ZM85.74-35.55L64.25-35.55 64.25-31.62 72.58-31.62 72.58-3.91 64.25-3.91 64.25 0 85.74 0 85.74-3.91 77.22-3.91 77.22-31.62 85.74-31.62 85.74-35.55ZM105-17.77L99.21-35.55 93.62-35.55 93.62 0 98.01 0 98.01-14.18 97.65-28.52 103.68-9.89 106.27-9.89 112.83-29.03 112.47-14.18 112.47 0 116.86 0 116.86-35.55 111.25-35.55 105-17.77ZM128.97-16.43L143.81-16.43 143.81-20.26 128.97-20.26 128.97-31.69 146.06-31.69 146.06-35.55 124.45-35.55 124.45 0 146.28 0 146.28-3.83 128.97-3.83 128.97-16.43Z" opacity="1" transform="matrix(1,0,0,1,0,0)" fill="#a6ce47" class="wordmark-text-0" data-fill-palette-color="primary" id="text-0"></path></svg></g></svg></g></svg></g></svg></g><g transform="matrix(1,0,0,1,451.34394879314385,23.916985650749872)"><svg viewBox="0 0 183.32352 71.29248" height="71.29248" width="183.32352"><g><svg xmlns="http://www.w3.org/2000/svg" xmlns:xlink="http://www.w3.org/1999/xlink" version="1.1" x="0" y="0" viewBox="5 32.5 90 35" enable-background="new 0 0 100 100" xml:space="preserve" height="71.29248" width="183.32352" class="icon-icon-0" data-fill-palette-color="accent" id="icon-0"><path d="M90.781 42.898C91.083 42.01 91.25 41.033 91.25 40c0-4.206-2.745-7.5-6.25-7.5H15c-4.03 0-7.188 3.843-7.188 8.75 0 0.793 0.09 1.554 0.246 2.279C6.216 44.82 5 47.205 5 50c0 2.795 1.216 5.181 3.058 6.471-0.155 0.726-0.246 1.486-0.246 2.279 0 4.906 3.157 8.75 7.188 8.75h70c3.505 0 6.25-3.294 6.25-7.5 0-1.033-0.167-2.01-0.469-2.898C93.258 56.112 95 53.348 95 50 95 46.652 93.258 43.889 90.781 42.898zM15 62.5c-1.032 0-2.188-1.604-2.188-3.75 0-0.945 0.231-1.773 0.57-2.417 6.798 0.442 18.731 2.711 30.327 4.92 2.224 0.423 4.424 0.842 6.582 1.247H15zM88.75 53.75c-1.355 0-2.5-1.718-2.5-3.75 0-2.033 1.145-3.75 2.5-3.75s2.5 1.717 2.5 3.75C91.25 52.032 90.105 53.75 88.75 53.75zM87.5 60c0 2.032-1.145 3.75-2.5 3.75s-2.5-1.718-2.5-3.75 1.145-3.75 2.5-3.75S87.5 57.968 87.5 60zM10 50c0-2.033 1.145-3.75 2.5-3.75 6.145 0 18.557 2.542 30.56 5 12.407 2.541 24.124 4.938 30.453 4.995C72.88 57.292 72.5 58.59 72.5 60c0 1.348 0.347 2.595 0.93 3.617-6.793-0.545-18.182-2.712-29.253-4.82-12.045-2.293-24.469-4.659-31.351-5.004-0.104-0.028-0.213-0.043-0.326-0.043C11.145 53.75 10 52.032 10 50zM77.5 36.25c1.355 0 2.5 1.717 2.5 3.75s-1.145 3.75-2.5 3.75S75 42.033 75 40 76.145 36.25 77.5 36.25zM71.25 50c0-2.033 1.145-3.75 2.5-3.75s2.5 1.717 2.5 3.75c0 2.032-1.145 3.75-2.5 3.75S71.25 52.032 71.25 50zM81.25 53.75c-1.355 0-2.5-1.718-2.5-3.75 0-2.033 1.145-3.75 2.5-3.75s2.5 1.717 2.5 3.75C83.75 52.032 82.605 53.75 81.25 53.75zM75 60c0-2.032 1.145-3.75 2.5-3.75S80 57.968 80 60s-1.145 3.75-2.5 3.75S75 62.032 75 60zM85 43.75c-1.355 0-2.5-1.717-2.5-3.75s1.145-3.75 2.5-3.75 2.5 1.717 2.5 3.75S86.355 43.75 85 43.75zM73.506 43.745c-6.092-0.055-17.589-2.224-28.72-4.326-3.465-0.654-6.964-1.315-10.339-1.919H72.92c-0.269 0.766-0.42 1.611-0.42 2.5C72.5 41.406 72.878 42.7 73.506 43.745zM15 37.5c6.154 0 17.933 2.224 29.322 4.375 9.756 1.842 19.064 3.599 25.556 4.175C69.174 47.128 68.75 48.503 68.75 50c0 1.289 0.314 2.489 0.852 3.485-6.609-0.706-16.454-2.721-26.04-4.684-11.567-2.369-23.495-4.809-30.125-5.029-0.37-0.656-0.624-1.526-0.624-2.522C12.813 39.104 13.968 37.5 15 37.5z" fill="#a6ce47" data-fill-palette-color="accent"></path></svg></g></svg></g></svg></g><defs></defs></svg><rect width="395.52" height="74.23870977405635" fill="none" stroke="none" visibility="hidden"></rect></g></svg></g></svg>