<svg xmlns="http://www.w3.org/2000/svg" version="1.1" xmlns:xlink="http://www.w3.org/1999/xlink" xmlns:svgjs="http://svgjs.dev/svgjs" width="1000" height="474" viewBox="0 0 1000 474"><g transform="matrix(1,0,0,1,0.16994382022460286,0.17869976171186863)"><svg viewBox="0 0 356 169" data-background-color="#ffffff" preserveAspectRatio="xMidYMid meet" height="474" width="1000" xmlns="http://www.w3.org/2000/svg" xmlns:xlink="http://www.w3.org/1999/xlink"><g id="tight-bounds" transform="matrix(1,0,0,1,-0.06049999999996203,-0.06371362812089387)"><svg viewBox="0 0 356.12052 169.127260738502" height="169.127260738502" width="356.12052"><g><svg viewBox="0 0 356.12052 169.127260738502" height="169.127260738502" width="356.12052"><g transform="matrix(1,0,0,1,0,56.8944272562418)"><svg viewBox="0 0 356.12052 112.23283348226019" height="112.23283348226019" width="356.12052"><g><path d="M0 112.233v-112.233h356.121v112.233z" fill="#a6ce47" stroke="transparent" stroke-width="0" rx="0%" data-fill-palette-color="tertiary"></path><path d="M3.283 108.95v-105.667h349.554v105.667z" fill="#ffffff" stroke="transparent" stroke-width="0" rx="0%" data-fill-palette-color="quaternary"></path><path d="M9.85 102.383v-92.533h336.421v92.533z" fill="#a6ce47" stroke="transparent" stroke-width="0" data-fill-palette-color="tertiary"></path></g><g transform="matrix(1,0,0,1,19.69974,19.69974)" id="textblocktransform"><svg viewBox="0 0 316.72104 72.8333534822602" height="72.8333534822602" width="316.72104" id="textblock"><g><svg viewBox="0 0 316.72104 72.8333534822602" height="72.8333534822602" width="316.72104"><g transform="matrix(1,0,0,1,0,0)"><svg width="316.72104" viewBox="3.5 -35 152.19000244140625 35" height="72.8333534822602" data-palette-color="#ffffff"><path d="M11.5 0L4.75 0Q4.2 0 3.85-0.38 3.5-0.75 3.5-1.25L3.5-1.25 3.5-33.75Q3.5-34.3 3.85-34.65 4.2-35 4.75-35L4.75-35 18.75-35Q22.9-35 25.98-33.73 29.05-32.45 30.78-29.9 32.5-27.35 32.5-23.45L32.5-23.45Q32.5-19.6 30.78-17.1 29.05-14.6 25.98-13.4 22.9-12.2 18.75-12.2L18.75-12.2 12.8-12.2 12.8-1.25Q12.8-0.75 12.43-0.38 12.05 0 11.5 0L11.5 0ZM12.65-28.05L12.65-19.1 18.5-19.1Q20.65-19.1 21.93-20.2 23.2-21.3 23.2-23.55L23.2-23.55Q23.2-25.45 22.1-26.75 21-28.05 18.5-28.05L18.5-28.05 12.65-28.05ZM45 0L38.55 0Q38 0 37.65-0.38 37.3-0.75 37.3-1.25L37.3-1.25 37.3-33.75Q37.3-34.3 37.65-34.65 38-35 38.55-35L38.55-35 52.15-35Q58.65-35 62.35-32.02 66.05-29.05 66.05-23.6L66.05-23.6Q66.05-20.05 64.35-17.6 62.65-15.15 59.85-13.9L59.85-13.9 66.7-1.6Q66.85-1.3 66.85-1.05L66.85-1.05Q66.85-0.65 66.52-0.33 66.2 0 65.8 0L65.8 0 59.15 0Q58.2 0 57.75-0.48 57.3-0.95 57.1-1.35L57.1-1.35 51.4-12.35 46.3-12.35 46.3-1.25Q46.3-0.75 45.92-0.38 45.55 0 45 0L45 0ZM46.3-28.05L46.3-19.45 52.05-19.45Q54.4-19.45 55.57-20.6 56.75-21.75 56.75-23.7L56.75-23.7Q56.75-25.65 55.62-26.85 54.5-28.05 52.05-28.05L52.05-28.05 46.3-28.05ZM79.8 0L73.1 0Q72.55 0 72.2-0.38 71.85-0.75 71.85-1.25L71.85-1.25 71.85-33.75Q71.85-34.3 72.2-34.65 72.55-35 73.1-35L73.1-35 79.8-35Q80.35-35 80.72-34.65 81.1-34.3 81.1-33.75L81.1-33.75 81.1-1.25Q81.1-0.75 80.72-0.38 80.35 0 79.8 0L79.8 0ZM95.29 0L89.29 0Q88.79 0 88.42-0.38 88.04-0.75 88.04-1.25L88.04-1.25 88.04-33.75Q88.04-34.3 88.42-34.65 88.79-35 89.29-35L89.29-35 94.69-35Q95.54-35 95.94-34.58 96.34-34.15 96.44-33.9L96.44-33.9 105.24-18.15 114.04-33.9Q114.19-34.15 114.57-34.58 114.94-35 115.79-35L115.79-35 121.14-35Q121.69-35 122.07-34.65 122.44-34.3 122.44-33.75L122.44-33.75 122.44-1.25Q122.44-0.75 122.07-0.38 121.69 0 121.14 0L121.14 0 115.19 0Q114.64 0 114.27-0.38 113.89-0.75 113.89-1.25L113.89-1.25 113.89-20 108.29-9.55Q108.04-9.1 107.64-8.75 107.24-8.4 106.54-8.4L106.54-8.4 103.94-8.4Q103.24-8.4 102.84-8.75 102.44-9.1 102.19-9.55L102.19-9.55 96.54-20 96.54-1.25Q96.54-0.75 96.19-0.38 95.84 0 95.29 0L95.29 0ZM154.44 0L130.69 0Q130.14 0 129.79-0.38 129.44-0.75 129.44-1.25L129.44-1.25 129.44-33.75Q129.44-34.3 129.79-34.65 130.14-35 130.69-35L130.69-35 154.04-35Q154.59-35 154.94-34.65 155.29-34.3 155.29-33.75L155.29-33.75 155.29-29.05Q155.29-28.5 154.94-28.15 154.59-27.8 154.04-27.8L154.04-27.8 138.09-27.8 138.09-21.05 152.94-21.05Q153.49-21.05 153.84-20.68 154.19-20.3 154.19-19.75L154.19-19.75 154.19-15.4Q154.19-14.9 153.84-14.53 153.49-14.15 152.94-14.15L152.94-14.15 138.09-14.15 138.09-7.2 154.44-7.2Q154.99-7.2 155.34-6.85 155.69-6.5 155.69-5.95L155.69-5.95 155.69-1.25Q155.69-0.75 155.34-0.38 154.99 0 154.44 0L154.44 0Z" opacity="1" transform="matrix(1,0,0,1,0,0)" fill="#ffffff" class="wordmark-text-0" data-fill-palette-color="quaternary" id="text-0"></path></svg></g></svg></g></svg></g></svg></g><g transform="matrix(1,0,0,1,150.69624882373498,0)"><svg viewBox="0 0 54.72802235253006 50.327847256241796" height="50.327847256241796" width="54.72802235253006"><g><svg xmlns="http://www.w3.org/2000/svg" xmlns:xlink="http://www.w3.org/1999/xlink" version="1.1" x="0" y="0" viewBox="0.8650002479553223 3.634998321533203 89.20299530029297 82.031005859375" enable-background="new 0 0 90 90" xml:space="preserve" width="54.72802235253006" height="50.327847256241796" class="icon-icon-0" data-fill-palette-color="accent" id="icon-0"><path d="M75.723 21.843c-0.774 0-1.534 0.077-2.284 0.196 0.382-1.301 0.584-2.663 0.584-4.057 0-7.911-6.436-14.347-14.346-14.347-3.836 0-7.427 1.495-10.135 4.202L33 21.233l-11.069 9.383c-3.431 3.027-5.611 7.443-5.611 12.367 0 1.207 0.138 2.381 0.385 3.515L5.779 57.425c-0.047 0.046-0.093 0.092-0.138 0.138L5.484 57.72l0.007 0.007c-2.858 2.969-4.626 6.994-4.626 11.431 0 9.103 7.405 16.508 16.508 16.508 6.142 0 11.5-3.378 14.343-8.367 2.843 4.989 8.202 8.367 14.343 8.367 5.954 0 11.166-3.179 14.07-7.919l27.562-34.042 0.668-0.723c1.437-2.282 1.709-4.085 1.709-6.794C90.069 28.278 83.634 21.843 75.723 21.843zM53.294 10.167c1.797-1.475 4.024-2.28 6.384-2.28 2.943 0 5.587 1.274 7.434 3.29L52.128 27.288l3.113 2.896L69.33 15.036c0.285 0.933 0.441 1.922 0.441 2.947 0 1.775-0.463 3.476-1.318 4.978l-1.096 1.269c-0.335 0.28-1.466 1.502-1.779 1.815L49.153 45.304c0.108-0.76 0.183-1.531 0.183-2.321 0-8.958-7.176-16.256-16.08-16.486L53.294 10.167zM18.336 50.88c0.372 0.68 0.804 1.321 1.265 1.939-0.73-0.099-1.47-0.168-2.227-0.168-0.287 0-0.568 0.029-0.852 0.043L18.336 50.88zM29.591 69.919c-0.396 6.403-5.716 11.495-12.217 11.495-6.758 0-12.256-5.498-12.256-12.256 0-3.337 1.344-6.364 3.516-8.576l0.164-0.164c2.212-2.171 5.239-3.516 8.576-3.516 6.501 0 11.821 5.092 12.217 11.495-0.012 0.254-0.039 0.504-0.039 0.761S29.58 69.665 29.591 69.919zM31.717 61.018c-0.336-0.59-0.712-1.153-1.116-1.695 0.693 0.094 1.394 0.157 2.111 0.162C32.354 59.978 32.02 60.487 31.717 61.018zM20.572 42.983c0-6.758 5.498-12.256 12.256-12.256s12.256 5.498 12.256 12.256-5.498 12.256-12.256 12.256S20.572 49.741 20.572 42.983zM56.675 75.258L55.54 76.66l0.119 0.096c-2.247 2.832-5.711 4.658-9.598 4.658-6.501 0-11.821-5.092-12.217-11.495 0.012-0.254 0.039-0.504 0.039-0.761s-0.027-0.507-0.039-0.761c0.396-6.403 5.716-11.495 12.217-11.495 6.758 0 12.256 5.498 12.256 12.256C58.316 71.38 57.713 73.46 56.675 75.258zM84.882 40.42l-22.37 27.629c-0.107-1.596-0.441-3.128-0.971-4.569L76.132 46.69l-3.209-2.789L59.395 59.467c-2.59-3.554-6.556-6.032-11.114-6.649l21.228-24.575c0.08-0.063 0.164-0.122 0.246-0.182 0 0 0.278-0.169 0.386-0.284 1.641-1.093 3.566-1.681 5.582-1.681 5.566 0 10.095 4.528 10.095 10.095C85.817 37.662 85.492 39.101 84.882 40.42z" fill="#4d7e3e" data-fill-palette-color="accent"></path><path d="M17 73.821c-2 0-4.29-1.821-4.29-4.821H8.458c0 5 3.542 9.073 8.542 9.073v-2.145c0.124 0.007 0.247 0.019 0.374 0.019L17 75.574V73.821z" fill="#4d7e3e" data-fill-palette-color="accent"></path><path d="M46 73.821c-1.22 0-2.196-0.315-2.94-0.874l-0.699-0.699c-0.625-0.813-0.964-1.904-0.964-3.249h-4.252c0 5 3.854 9.073 8.854 9.073v-2.129c0.02 0 0.04 0.003 0.061 0.003L46 75.887V73.821z" fill="#4d7e3e" data-fill-palette-color="accent"></path><path d="M29.214 46.158c-0.667-0.773-1.048-1.823-1.048-3.158h-2.109L26 42.983c0 0.006 0 0.011 0 0.017h-2.087c0 5 4.087 8.898 9.087 8.898v-4.252c-1.4 0-2.533-0.372-3.357-1.06L29.214 46.158z" fill="#4d7e3e" data-fill-palette-color="accent"></path></svg></g></svg></g><g></g></svg></g><defs></defs></svg><rect width="356.12052" height="169.127260738502" fill="none" stroke="none" visibility="hidden"></rect></g></svg></g></svg>