<svg xmlns="http://www.w3.org/2000/svg" version="1.1" xmlns:xlink="http://www.w3.org/1999/xlink" xmlns:svgjs="http://svgjs.dev/svgjs" width="1000" height="199" viewBox="0 0 1000 199"><g transform="matrix(1,0,0,1,-0.6060602470572576,0.5411268885179936)"><svg viewBox="0 0 396 79" data-background-color="#ffffff" preserveAspectRatio="xMidYMid meet" height="199" width="1000" xmlns="http://www.w3.org/2000/svg" xmlns:xlink="http://www.w3.org/1999/xlink"><g id="tight-bounds" transform="matrix(1,0,0,1,0.23999985783467537,-0.21481670635583328)"><svg viewBox="0 0 395.52 79.42963592340567" height="79.42963592340567" width="395.52"><g><svg viewBox="0 0 661.098897371785 132.76406939625258" height="79.42963592340567" width="395.52"><g><rect width="8.663386968649547" height="115.27994448299789" x="418.19902347814013" y="8.742062456627345" fill="#a6ce47" opacity="1" stroke-width="0" stroke="transparent" fill-opacity="1" class="rect-o-0" data-fill-palette-color="primary" rx="1%" id="o-0" data-palette-color="#a6ce47"></rect></g><g transform="matrix(1,0,0,1,0,18.348724496877168)"><svg viewBox="0 0 395.52 96.06662040249824" height="96.06662040249824" width="395.52"><g id="textblocktransform"><svg viewBox="0 0 395.52 96.06662040249824" height="96.06662040249824" width="395.52" id="textblock"><g><svg viewBox="0 0 395.52 96.06662040249824" height="96.06662040249824" width="395.52"><g transform="matrix(1,0,0,1,0,0)"><svg width="395.52" viewBox="1.75 -35 144.08999633789062 35" height="96.06662040249824" data-palette-color="#a6ce47"><path d="M1.75 0L13.85 0 13.85-3.95 8.15-3.95 8.15-15.6 13.6-15.6Q18.7-15.6 21.4-18.28 24.1-20.95 24.1-25.5L24.1-25.5Q24.1-28.05 22.9-29.85 21.7-31.65 19.9-32.8L19.9-32.8Q18.1-33.95 16.03-34.48 13.95-35 12.25-35L12.25-35 1.75-35 1.75-31.05 4-31.05 4-3.95 1.75-3.95 1.75 0ZM8.15-19.6L8.15-31.05 12.55-31.05Q14.1-31.05 15.48-30.6 16.85-30.15 17.85-29.4L17.85-29.4Q18.8-28.6 19.38-27.6 19.95-26.6 19.95-25.5L19.95-25.5Q19.95-24.55 19.6-23.5 19.25-22.45 18.4-21.6L18.4-21.6Q17.55-20.75 16.13-20.18 14.7-19.6 12.5-19.6L12.5-19.6 8.15-19.6ZM27.6 0L39.7 0 39.7-3.95 34-3.95 34-15.6 36.1-15.6Q36.8-15.6 37.17-15.63 37.55-15.65 38.25-15.65L38.25-15.65 45.6 0 52.9 0 52.9-3.95 48.2-3.95 42.6-15.95Q46.2-16.75 48.07-19.25 49.95-21.75 49.95-25.5L49.95-25.5Q49.95-28.05 48.75-29.85 47.55-31.65 45.75-32.8L45.75-32.8Q43.95-33.95 41.87-34.48 39.8-35 38.1-35L38.1-35 27.6-35 27.6-31.05 29.85-31.05 29.85-3.95 27.6-3.95 27.6 0ZM34-19.6L34-31.05 38.4-31.05Q39.95-31.05 41.32-30.6 42.7-30.15 43.7-29.4L43.7-29.4Q44.65-28.6 45.22-27.6 45.8-26.6 45.8-25.5L45.8-25.5Q45.8-24.55 45.45-23.5 45.1-22.45 44.25-21.6L44.25-21.6Q43.4-20.75 41.97-20.18 40.55-19.6 38.35-19.6L38.35-19.6 34-19.6ZM56.4 0L68.5 0 68.5-3.95 64.5-3.95 64.5-31.05 68.5-31.05 68.5-35 56.4-35 56.4-31.05 60.35-31.05 60.35-3.95 56.4-3.95 56.4 0ZM71.99 0L84.09 0 84.09-3.95 80.49-3.95 80.49-23.5Q80.49-23.9 80.44-24.3 80.39-24.7 80.34-25.1L80.34-25.1Q80.59-24.65 80.82-24.35 81.04-24.05 81.39-23.6L81.39-23.6 94.64-6.25 107.34-22.8Q107.74-23.35 108.14-23.95 108.54-24.55 108.94-25.1L108.94-25.1Q108.89-24.7 108.87-24.3 108.84-23.9 108.79-23.5L108.79-23.5 108.79-3.95 105.19-3.95 105.19 0 117.29 0 117.29-3.95 112.94-3.95 112.94-31.05 117.29-31.05 117.29-35 111.69-35Q107.39-29.45 103.17-23.93 98.94-18.4 94.64-12.85L94.64-12.85Q90.34-18.4 86.12-23.93 81.89-29.45 77.59-35L77.59-35 71.99-35 71.99-31.05 76.34-31.05 76.34-3.95 71.99-3.95 71.99 0ZM120.79 0L145.84 0 145.84-7.7 141.89-7.7 141.89-3.95 127.74-3.95 127.74-15.65 143.19-15.65 143.19-19.6 127.74-19.6 127.74-31.05 141.19-31.05 141.19-27.3 145.14-27.3 145.14-35 120.79-35 120.79-31.05 123.59-31.05 123.59-3.95 120.79-3.95 120.79 0Z" opacity="1" transform="matrix(1,0,0,1,0,0)" fill="#a6ce47" class="wordmark-text-0" data-fill-palette-color="primary" id="text-0"></path></svg></g></svg></g></svg></g></svg></g><g transform="matrix(1,0,0,1,449.54143392492983,0)"><svg viewBox="0 0 211.5574634468551 132.76406939625258" height="132.76406939625258" width="211.5574634468551"><g><svg xmlns="http://www.w3.org/2000/svg" xmlns:xlink="http://www.w3.org/1999/xlink" version="1.1" x="0" y="0" viewBox="5.061999797821045 21.77800178527832 90 56.480003356933594" enable-background="new 0 0 100 100" xml:space="preserve" height="132.76406939625258" width="211.5574634468551" class="icon-icon-0" data-fill-palette-color="accent" id="icon-0"><path d="M5.062 56.786v6.137l0.5 0.833 27.012 14.39 0.006-0.001c0.133 0.07 0.285 0.113 0.44 0.113 0.155 0 0.313-0.039 0.459-0.121l61.1-34.088 0.483-0.825v-6.015c0-0.356-0.205-0.654-0.493-0.815v-0.016l-27.012-14.6-0.909 0.006L5.545 55.875c-0.335 0.186-0.509 0.548-0.478 0.908L5.062 56.786zM7.892 56.725l39.982-22.306c-4.958 8.574-16.278 15.095-23.335 17.139-7.565 2.19-10.355 3.604-14.547 6.284L7.892 56.725zM73.166 26.956c-2.078 1.684-4.081 2.508-7.24 3.792-0.772 0.313-1.612 0.654-2.539 1.043-8.88 3.723-13.565 8.414-14.133 11.766-0.465 2.738-9.891 6.268-17.568 9.087-6.241 2.295-11.633 4.273-12.808 5.925-1.185 1.662-1.988 2.381-2.468 2.692l-5.463-2.909c3.569-2.267 6.375-3.724 13.856-5.888 7.565-2.192 19.918-9.437 24.581-18.887l17.729-9.892L73.166 26.956zM29.23 68.091c3.398-1.451 11.509-5.084 13.382-7.423 1.339-1.678 5.249-0.896 7.64-0.068l-17.133 9.563L29.23 68.091zM21.181 63.803c0.785-0.834 2.307-2.096 4.698-2.661 6.548-1.546 28.233-13.043 28.479-13.161 1.565-0.766 1.225-1.863 0.952-2.747-0.366-1.172-0.741-2.384 1.798-4.152 1.733-1.208 7.612-3.497 11.193-1.742 0.465 0.229 0.704 0.608 0.725 1.164 0.074 1.8-2.023 4.669-4.495 6.141-1.033 0.617-3.026 1.498-4.747 0.477-0.499-0.298-0.533-0.606-0.506-0.84 0.168-1.467 3.696-5.151 4.824-5.511-1.354 0.433-5.533 3.425-5.763 5.403-0.057 0.509 0.062 1.225 0.964 1.758 1.585 0.944 3.615 0.775 5.712-0.476 2.762-1.646 5.022-4.83 4.954-6.964 1.408-0.451 7.593-2.635 11.894-8.834l5.813 3.144c-0.89 1.417-3.305 2.381-6.049 3.471-3.414 1.358-7.28 2.897-9.711 5.859-0.853 1.039 0.31 2.691 1.216 3.708l-16.455 9.181-4.698-1.256 2.854 2.286-3.485 1.942c-1.873-0.816-6.66-2.549-8.685-0.021-1.863 2.328-11.661 6.405-14.495 7.553L21.181 63.803zM56.866 57.899l-0.727 3.113-0.201-2.527-0.642-0.592c-0.007-0.012-0.016-0.019-0.027-0.025l-1.226-1.132L56.866 57.899zM17.328 61.75c0.607-0.493 1.37-1.302 2.319-2.636 1.008-1.41 6.018-3.54 11.603-5.594 8.737-3.208 18.535-6.52 18.941-9.851 0.453-3.722 5.017-7.428 13.559-11.009 0.924-0.388 4.512-1.872 5.28-2.184 3.389-1.378 2.927-1.168 5.041-3.031l6.056 3.274c-3.897 5.597-8.958 8.17-10.39 8.814-0.208-0.445-0.54-0.805-1.021-1.041-3.984-1.957-10.219 0.473-12.147 1.814-3.107 2.161-2.54 3.994-2.161 5.206 0.272 0.881 0.375 1.209-0.466 1.619C53.7 47.249 29.457 59.026 25.597 60.243c-2.713 0.853-4.412 2.278-5.237 3.122L17.328 61.75zM92.159 37.222L73.98 47.363c-0.896-0.982-1.692-2.198-1.336-2.635 2.276-2.773 6.074-4.753 9.383-6.068 2.905-1.157 5.436-1.837 6.467-3.42L92.159 37.222zM93.174 42.669L33.962 75.706v-3.854l21.425-11.954 0.753 2.648 1.437-3.924 35.598-19.808V42.669zM6.95 58.358l25.124 13.385v3.998L6.95 62.357V58.358z" fill="#a6ce47" data-fill-palette-color="accent"></path></svg></g></svg></g></svg></g><defs></defs></svg><rect width="395.52" height="79.42963592340567" fill="none" stroke="none" visibility="hidden"></rect></g></svg></g></svg>