<?xml version="1.0" encoding="UTF-8" standalone="no"?>
<svg
   xmlns:dc="http://purl.org/dc/elements/1.1/"
   xmlns:cc="http://creativecommons.org/ns#"
   xmlns:rdf="http://www.w3.org/1999/02/22-rdf-syntax-ns#"
   xmlns:svg="http://www.w3.org/2000/svg"
   xmlns="http://www.w3.org/2000/svg"
   viewBox="0 0 1122.5197 793.70081"
   height="793.70081"
   width="1122.5197"
   xml:space="preserve"
   id="svg2"
   version="1.1"><metadata
     id="metadata8"><rdf:RDF><cc:Work
         rdf:about=""><dc:format>image/svg+xml</dc:format><dc:type
           rdf:resource="http://purl.org/dc/dcmitype/StillImage" /></cc:Work></rdf:RDF></metadata><defs
     id="defs6" /><g
     transform="matrix(1.3333333,0,0,-1.3333333,0,793.7008)"
     id="g10"><g
       id="g12"><path
         id="path14"
         style="fill:#5c5c5b;fill-opacity:1;fill-rule:evenodd;stroke:none"
         d="m 67.9516,371.1671 h 78.5219 c 19.3759,0 34.8457,-5.6259 46.4091,-16.8769 10.4692,-10.1563 15.7037,-22.5003 15.7037,-37.0333 0,-14.5315 -5.1557,-26.7978 -15.4698,-36.7993 -11.5634,-11.2507 -27.1106,-16.8755 -46.643,-16.8755 H 117.6429 V 218.1098 H 67.9516 Z m 49.6913,-37.2682 v -33.0497 h 20.6266 c 5.7812,0 10.3127,1.6409 13.5949,4.9232 3.2809,3.2808 4.9218,7.1093 4.9218,11.4845 0,4.688 -1.5621,8.633 -4.6879,11.8375 -3.1243,3.2035 -7.7349,4.8045 -13.8288,4.8045 z M 373.8328,218.1098 h -53.6752 l -24.8453,49.6911 h -16.642 v -49.6911 h -49.4572 v 153.0573 h 78.5217 c 20.4704,0 36.6432,-5.2345 48.5181,-15.7048 10.6268,-9.3747 15.9389,-20.7043 15.9389,-33.9477 0,-9.8436 -3.1646,-19.0245 -9.4924,-27.5397 -6.3289,-8.5167 -15.0406,-14.4941 -26.1351,-17.9312 z m -95.1625,115.7891 v -28.8295 h 20.8608 c 5.7809,0 10.3127,1.4445 13.5946,4.2965 3.2809,2.8904 4.9218,6.2501 4.9218,10.1174 0,3.7111 -1.6409,7.0707 -4.9218,10.0015 -3.2819,2.9293 -7.8137,4.4141 -13.5946,4.4141 z m 158.2146,-18.5945 v -97.1946 h -49.4574 v 146.3964 z m 78.5206,55.8627 24.8456,-99.3824 28.8295,99.3824 h 62.1139 V 218.1098 h -53.9101 v 49.6911 l 4.2188,45.4711 -24.8454,-95.1622 h -33.0483 l -24.8457,95.1622 4.2188,-45.4711 v -49.6911 h -49.6913 v 153.0573 z m 134.5396,0 H 773.9379 V 333.8989 H 699.4023 V 313.272 h 62.1128 V 280.2237 H 699.4023 V 255.378 h 74.5356 V 218.1098 H 649.9451 Z" /><path
         id="path16"
         style="fill:#b1cc39;fill-opacity:1;fill-rule:evenodd;stroke:none"
         d="m 432.525,327.602 v 0 l -49.5647,49.5646 v 0 h 49.5647 z" /></g></g></svg>