<svg xmlns="http://www.w3.org/2000/svg" xmlns:xlink="http://www.w3.org/1999/xlink" version="1.1" width="841.8898pt" height="595.2756pt" viewBox="0 0 841.8898 595.2756">
<g id="layer_1" data-name="">
<path transform="matrix(1,0,0,-1,0,595.2756)" d="M67.9516 371.1671H146.4735C165.8494 371.1671 181.3192 365.5412 192.8826 354.2902 203.3518 344.1339 208.5863 331.7899 208.5863 317.2569 208.5863 302.7254 203.4306 290.4591 193.1165 280.4576 181.5531 269.2069 166.0059 263.5821 146.4735 263.5821H117.6429V218.1098H67.9516ZM117.6429 333.8989V300.8492H138.2695C144.0507 300.8492 148.5822 302.4901 151.8644 305.7724 155.1453 309.0532 156.7862 312.8817 156.7862 317.2569 156.7862 321.9449 155.2241 325.8899 152.0983 329.0944 148.974 332.2979 144.3634 333.8989 138.2695 333.8989ZM373.8328 218.1098H320.1576L295.3123 267.8009H278.6703V218.1098H229.2131V371.1671H307.7348C328.2052 371.1671 344.378 365.9326 356.2529 355.4623 366.8797 346.0876 372.1918 334.758 372.1918 321.5146 372.1918 311.671 369.0272 302.4901 362.6994 293.9749 356.3705 285.4582 347.6588 279.4808 336.5643 276.0437ZM278.6703 333.8989V305.0694H299.5311C305.312 305.0694 309.8438 306.5139 313.1257 309.3659 316.4066 312.2563 318.0475 315.616 318.0475 319.4833 318.0475 323.1944 316.4066 326.554 313.1257 329.4848 309.8438 332.4141 305.312 333.8989 299.5311 333.8989ZM436.8849 315.3044V218.1098H387.4275V364.5062ZM515.4055 371.1671 540.2511 271.7847 569.0806 371.1671H631.1945V218.1098H577.2844V267.8009L581.5032 313.272 556.6578 218.1098H523.6095L498.7638 313.272 502.9826 267.8009V218.1098H453.2913V371.1671ZM649.9451 371.1671H773.9379V333.8989H699.4023V313.272H761.5151V280.2237H699.4023V255.378H773.9379V218.1098H649.9451Z" fill="#565655" fill-rule="evenodd"/>
<path transform="matrix(1,0,0,-1,0,595.2756)" d="M432.525 327.602V327.602L382.9603 377.1666H432.525Z" fill="#b0cb2d" fill-rule="evenodd"/>
</g>
</svg>
